<svg width="24" height="24" viewBox="0 0 24 24" fill="none" xmlns="http://www.w3.org/2000/svg">
<g clip-path="url(#clip0_1301_280)">
<path d="M15.1508 8.4C14.3843 8.39737 13.6249 8.54589 12.9159 8.83707C12.2069 9.12826 11.5623 9.55638 11.019 10.0969C10.4756 10.6375 10.0442 11.2799 9.74934 11.9874C9.45452 12.6949 9.30209 13.4535 9.30078 14.22V20.1C9.30078 20.3387 9.3956 20.5676 9.56439 20.7364C9.73317 20.9052 9.96209 21 10.2008 21H12.3008C12.5395 21 12.7684 20.9052 12.9372 20.7364C13.106 20.5676 13.2008 20.3387 13.2008 20.1V14.22C13.2006 13.9474 13.2578 13.6778 13.3688 13.4288C13.4798 13.1798 13.642 12.957 13.8448 12.7749C14.0477 12.5928 14.2867 12.4555 14.5461 12.372C14.8056 12.2884 15.0798 12.2605 15.3508 12.29C15.8368 12.3512 16.2834 12.5887 16.606 12.9573C16.9286 13.326 17.1046 13.8002 17.1008 14.29V20.1C17.1008 20.3387 17.1956 20.5676 17.3644 20.7364C17.5332 20.9052 17.7621 21 18.0008 21H20.1008C20.3395 21 20.5684 20.9052 20.7372 20.7364C20.906 20.5676 21.0008 20.3387 21.0008 20.1V14.22C20.9995 13.4535 20.847 12.6949 20.5522 11.9874C20.2574 11.2799 19.826 10.6375 19.2826 10.0969C18.7393 9.55638 18.0946 9.12826 17.3857 8.83707C16.6767 8.54589 15.9172 8.39737 15.1508 8.4Z" fill="#99CC00"/>
<path d="M6.6 9.29999H3.9C3.40294 9.29999 3 9.70293 3 10.2V20.1C3 20.597 3.40294 21 3.9 21H6.6C7.09706 21 7.5 20.597 7.5 20.1V10.2C7.5 9.70293 7.09706 9.29999 6.6 9.29999Z" fill="#99CC00"/>
<path d="M5.25 7.5C6.49264 7.5 7.5 6.49264 7.5 5.25C7.5 4.00736 6.49264 3 5.25 3C4.00736 3 3 4.00736 3 5.25C3 6.49264 4.00736 7.5 5.25 7.5Z" fill="#99CC00"/>
</g>
<defs>
<clipPath id="clip0_1301_280">
<rect width="24" height="24" fill="white"/>
</clipPath>
</defs>
</svg>
