<svg width="24" height="24" viewBox="0 0 24 24" fill="none" xmlns="http://www.w3.org/2000/svg">
<circle cx="12" cy="12" r="12" fill="white"/>
<path d="M19.9855 7.64158C20.0301 7.58205 19.9642 7.50518 19.893 7.53166C19.3864 7.71985 18.8569 7.84682 18.3169 7.90939C18.9182 7.5651 19.3822 7.041 19.6396 6.42051C19.6657 6.3573 19.5937 6.30085 19.5316 6.33373C18.9727 6.62954 18.37 6.84254 17.7439 6.96521C17.7177 6.97035 17.6907 6.9618 17.6723 6.94319C17.2025 6.46804 16.5839 6.15167 15.9097 6.04234C15.2213 5.93072 14.5137 6.04124 13.898 6.35657C13.2822 6.6719 12.793 7.17421 12.5071 7.78471C12.2354 8.36518 12.1621 9.01224 12.2961 9.63365C12.3065 9.68187 12.2671 9.72739 12.2158 9.72434C10.9977 9.65183 9.80748 9.34129 8.71854 8.81143C7.63237 8.28292 6.67054 7.54767 5.89162 6.65103C5.85705 6.61124 5.79153 6.61638 5.76634 6.6622C5.52398 7.103 5.39707 7.59431 5.39742 8.09365C5.39643 8.5907 5.5237 9.08027 5.76789 9.51877C6.01209 9.95728 6.36563 10.3311 6.79703 10.607C6.33952 10.595 5.89094 10.4866 5.48297 10.2901C5.43039 10.2648 5.36733 10.3008 5.37006 10.3572C5.40188 11.0126 5.65293 11.6705 6.08747 12.1754C6.54989 12.7126 7.19173 13.0802 7.90442 13.2161C7.63007 13.2962 7.34524 13.3383 7.0585 13.3414C6.90243 13.3396 6.74667 13.3287 6.59211 13.3084C6.5348 13.3009 6.48802 13.3531 6.50807 13.405C6.72065 13.956 7.09617 14.4367 7.58994 14.7876C8.11784 15.1628 8.75462 15.3709 9.4117 15.383C8.30216 16.2198 6.93229 16.6765 5.52046 16.6802C5.37539 16.6807 5.23038 16.6762 5.08572 16.6667C5.0042 16.6614 4.96671 16.7655 5.03697 16.8055C6.41257 17.5879 7.98485 18.0014 9.58857 17.9995C10.7726 18.0113 11.9472 17.7969 13.0438 17.3687C14.1405 16.9405 15.137 16.3072 15.9754 15.5057C16.8138 14.7043 17.4772 13.7508 17.9267 12.7008C18.3762 11.6509 18.603 10.5257 18.5938 9.39085V9.03719C18.5938 9.01393 18.6052 8.99204 18.6246 8.97802C19.1462 8.60055 19.605 8.14989 19.9855 7.64158Z" fill="#2A3C31"/>
</svg>
